<?xml version="1.0" encoding="UTF-8"?>
<svg id="Layer_1" xmlns="http://www.w3.org/2000/svg" version="1.1" viewBox="0 0 1080 1080">
  <!-- Generator: Adobe Illustrator 29.5.0, SVG Export Plug-In . SVG Version: 2.1.0 Build 137)  -->
  <defs>
    <style>
      .st0, .st1 {
        fill: #fff;
      }

      .st1, .st2, .st3, .st4 {
        display: none;
      }

      .st2 {
        font-family: Raleway-Black, Raleway;
        font-size: 55.46px;
        font-weight: 800;
      }

      .st3, .st5 {
        stroke: #231f20;
        stroke-miterlimit: 10;
      }
    </style>
  </defs>
  <rect class="st3" x="187.17" width="724.46" height="1086.68"/>
  <rect class="st0" x="0" y="0" width="1080" height="1080" rx="540" ry="540"/>
  <path class="st1" d="M530.42,758.19c0,.9-2.89,2.82,1.59,4.02-.96-6.54.75-12.89,4.88-4.02l-4.93,76.86c.51,2.03,15.03,5.7,14.6,9.81l-24.14,45.22c-2.46,1.49-12.65-7.45-15.02-7.1-1.94.29-11.64,8.7-15.08,10.68-31.03,17.83-73.31,12.71-96.03-15.89-38.14-48.04-12.33-175.14-18.82-238.3-2.49-24.26-23.15-66.78-53.19-56.75-7.03,2.35-13.54,9.12-20.6,11.55l118.99-111.66c-16.38,32.36,8.22,60.83,20.06,90.04s19.33,59.71,13.72,92.28c.58,3.13,3.58,5.95,6.42,7.3,2.05-19.98,1.89-40.22,3.25-60.24,2.33-34.24,6.06-68.5,8.08-102.8.6-10.21-2.74-8.19-3.26-9.95-1.77-6.01,3.14-4.82,4.12-8.4.76-2.77.34-9.48.68-9.83.46-.49,11.96-.29,13.46.22,4.84,1.64-.19,9.07,5.84,7.81.67-6.91-2.39-13.14-1.67-20.11.33-3.14,4.92-12,3.27-13.62-3.13-3.08-5.92,3.71-7.36,4.62-14.07,8.84-13.26-20.6-.03-12.5,1.43.87,4.3,7.78,7.39,4.66,3.52-3.55-4.81-13.13-5.69-15.99-4.58-14.83,8.73-12.32,9.01-13.83,1.8-9.59-6.7-15.3-6.65-22.44s8.06-8.24,8.31-9.82c.46-2.93-2.97-6.4-3.35-9.57-.49-4.09,1.76-7.54,1.31-10.76-.3-2.15-2.92-4.3-2.91-6.82.02-4.84,7.32-4.73,8.12-9.64.6-3.69-1.52-7.16-1.32-10.82.39-6.93,4.54-18.43,4.25-26.19-.12-3.21-3.21-5.73-3.15-9.58.05-3.47,4.12-9.23,4.78-14.62,2.22-18,1.4-31.89,7.85-50.01,7.05-19.83,39.99-19.55,56.72-15.75,6.31,1.43,24.92,8.52,29.53,12.26,3.69,2.99,1.6,6.46,3.58,8.05,6.49,5.21,41.26,15.3,49.71,14.46,2.94-.29,2.14-3.03,3.44-3.34,4.12-.96,9.84.91,13.89-.06,1.45-.35.37-3.35,3.26-3.2,3.18.16,31.72,5.65,32.87,6.87.69.74-.19,3.17,1.35,4.5,1.67,1.45,38.54,17.3,35.97,19.16-5.82,1.06-11.29-1.43-16.82-1.66-21.62-.88-38.56-.49-59.63-4.68-16.21-3.22-34.51-5.52-50.93-10.16-19.01-5.37-67.53-31.71-80.38-5.52-1.3,2.64-3.35,10.12-2.63,12.83,1.08,4.14,22.78,17.09,7.69,19.72,1.13,9.1-1.12,20.12-.02,28.9.47,3.79,4.73,3.2,4.93,4.75.24,1.87-4.63,4.57-4.76,5.16-2.79,12.84,3.38,30.88-4.82,44.29-1.13,1.85-4.18,1.34-4.89,5.16-.66,3.55-.77,33.84-.05,36.75.5,2.04,4.4,1.45,6.11,3.06,6.72,6.32,2.26,31.14,3.49,40.68.39,3.02,3.01,2.13,3.33,3.34,1.57,5.85-2.68,5.07-3.13,6.54-.28.92-1.63,10.29-1.52,10.82.55,2.53,6,1.43,4.64,4.88-2.03,5.13-12.24-3.13-14.45,4.03,18.89-3.93,8.51,28.22,11.22,39.06.44,1.76,3.36,1.78,4.01,2.72,4.43,6.48-3.52,3.87-4.06,5.75-.14.47-1.2,9.18-1.12,9.66.34,2.12,7.25,1.71,3.65,5.51-3.21,3.38-12.85.68-13.7,1.57-.8.84-2.01,20.77-1.34,23.14.98,3.46,6.56.65,8.61,4.15,2.83,4.81,1.75,27.76-8.86,22.53-2.51,9.98,4.9,4.49,7.34,7.93,1.64,2.31.1,21.53-.99,22.54s-10.31-2.13-5.58,4.92c.92,1.36,4.52,1.68,5.4,4.25.96,2.8.58,19.88-1.59,21.22-2.03,1.26-8.64-1.9-6.18,4.22,1.09,2.72,9.1,1.81,12.82,3.23,6.17,2.36,14.95,9.33,9.77,16.15-5.84,7.69-7.27-7.28-12.93-8.92,1.24,8.01-8.27,6.56-9.47,8.24-.85,1.19-.67,27.18.03,29.3,1.53,4.65,9.55,1.38,9.45,3.46-1.24,1.64-1.38,8.4-1.72,8.72-.77.74-7.96-.3-7.96.1,0,8.28-.06,16.61,0,24.91ZM470.92,802.38c-.41-.4-4.85.27-6.41,0,.23,20.74-6.46,6.45-7.48,6.31-.76-.1-8.14,1.59-8.42,1.92-2.01,2.33.6,22.31,4.6,24.76,14.77,9.04,20.26-30.54,17.71-32.98Z"/>
  <g>
    <path class="st5" d="M702.72,855.04c-.11,2.57,1.58,5.99,1.75,8.78,4.36-1.41,11.24-.34,13.38-4.94,2.13-4.56,1.82-26.56-2.47-28.41l-5.77.5c1.47,7.45-.07,13.62-3.28,20.23-.76,1.56-3.54,2.37-3.61,3.84Z"/>
    <path class="st5" d="M747.19,1036.93c-1.72-26.07-7.21-51.62-12.18-77.24-1.28-3.67-9.56-10.71-.47-12.07,4.1-.62,29.21,2.67,30.11,1.25l-12.05-69.06-19.19-1.45,6.44,32.72c.1.49,4.05,1.19,3.14,4.44-.71,2.56-4.4,5.2-6.84,2.83l-2.55-16.9-5.56,1.09c3.77,13.39-2.74,23.31-8.75,34.44,5.98,16.31,6.61,34.46,11.07,51.21.87,3.27,3.51,4.97,3.99,6.65.52,1.78-2.03,6.7.42,13.82,2.95,8.59,1.26,5.03,2.15,12.86.52,4.56,1.8,10.37,3.56,14.61.63,1.51,1.5,2.98,2.53,4.38,1.65-.67,3.3-1.35,4.94-2.04-.32-.4-.59-.9-.76-1.56Z"/>
    <path class="st5" d="M712.34,763.91c4.85,13.34,3.71,28.2,6.6,41.34,2.5,11.38,8.19,21.72,9.69,33.41l17.16-.35-14.52-73.8-18.93-.61Z"/>
    <path class="st5" d="M711.12,787.29c-2.45-1.57-2.48.62-2.36,2.6.3,4.96,2.05,9.98,4.29,14.37,4.55-1.89-.34-15.95-1.93-16.97Z"/>
    <path class="st5" d="M751.51,874.79l-4.63-29.99-16.66-1.87c-1.94,1.03-1.91,9.15-1.42,11.11.61,2.44,2.96,3.66,3.45,5.27.76,2.5-2.89,10.7.45,14.7l18.81.78Z"/>
    <path class="st5" d="M727.6,896.91l4.78-1.71-5.34-27.15c-8.27,8.25-3.31,19.66.57,28.86Z"/>
    <path class="st5" d="M646.41,583.12l3.5,18.05c8.76-6.11,16.6,8.75,18.9,15.97,3.92,12.3,5.77,31.9-8.42,37.82l4.9,23.23c16.44,5.78,24.29,27.06,18.07,42.73-2.83,7.15-9.51,9.87-4.6,19.65.54,1.07,4.65,1.79,6.53,3.27,4.24,3.34,17.08,13.6,17.99,18.24l3.97,20.19,3.48-3.1-45.73-240.98-2.93-2.83-14.47,2.65c7.93,11.52,17.71,40.51-1.2,45.12Z"/>
    <path class="st5" d="M529.89,410.73l-19.23-105.48-2.21-3.91-4.38.22,20.96,106.52c.22,1.1,2.77,4.32,4.86,2.65Z"/>
    <path class="st5" d="M419.72,67.93c-9.9.93-20.64,4.81-30.66,6.03-4.46,13.49,12.45,6.69,19.9,6.39,18.25-.73,38.68-.76,56.12,4.65,1.38-.35,2.83-9.16.1-10.81-5.97-3.59-37.9-6.97-45.45-6.27Z"/>
    <path class="st5" d="M765.37,953.2l-26.03-.19c-2.22,2.41,2.29,16.91,2.88,21.31.44,3.33-.13,6.62.39,9.93,1.63,10.34,5.69,37.44,9.35,45.64.93,2.08,3.13,3.47,5.85,4.38,6.08-2.68,12.1-5.48,18.06-8.38.67-20.79-5.18-40.94-9.46-60.73-.76-3.52,1.03-8.27-1.05-11.96Z"/>
    <path class="st5" d="M477.91,79.73l-1.29,8.8,35.88,13.21c3.64-7.44-31-25.81-34.59-22.01Z"/>
    <path class="st5" d="M540,0h0C241.77,0,0,241.77,0,540h0c0,298.23,241.77,540,540,540h0c35.96,0,71.1-3.52,105.09-10.23-.58-8.25-8.18-30.33-9.55-36.67-1.86-8.61-1.9-21.48-3.46-29.88l-24.38-131.08h-4.36s7.15,28.97,7.15,28.97l-6.8,1.14c-3.96-3.65-.25-6.46-.74-10.43-3.58-28.95-16.16-98.75-26.83-123.94-1.9-4.47-6.56-8.52-7.24-12.44-1.01-5.76,2.53-10.01,2.65-14.02.29-10.1-8.57-20.81,8.92-22.42l-21.99-133.82c-1.3-3.24-8.77-4.55-12.18-8.87-8.91-11.27-10.65-33.16,4-40.35l-6.47-40.23c-22.56-.69-31.52-42.15-8-47.92l-5.36-34.28c-3.73.85-5.7,5.75-9.76,2.41-4.06-39.25-14.55-77.94-22.3-116.64-3.95-19.74-5.51-44.23-11.43-63.18-1.18-3.77-4.24-6.37-4.5-7.69-.73-3.79,1.89-11.7-1-20.13-1.55-4.52-5.01-4.61-5.93-7.46-3.22-10.04,11.93-10.65,12.65-2.52.25,2.87-2.86,4.55-2.85,7.88,0,4.06,2.24,8.99,2.58,13.2l6.56-3.7c-2.03-5.05-.81-10.34-1.56-15.3-1.12-7.32-3.48-19.53-5.38-26.33-1.26-4.52-6.78-22.45-11.16-23.02-2.64-.34-5.88,1.89-8.51.08-4.38-4.15-.07-12.21-.55-13.53-.81-2.23-36.56-21.4-41.52-22.88-31.25-9.33-57.66,13.68-85.34,24.55-11.61,4.56-29.91,7.19-38.83,11.24-1.08.49.12,2.6-2.39,3.45-8.95,3.01-24.23,2.57-31.72,5.29-4.51,1.64-7.09,7.25-13.26,9.26-10.04,3.27-21.07,2.89-31,4.49-3.62.58-6.61,3.01-9.46,3.44-15.84,2.41-28.36-.09-43.56-3.88l-2.48-19.73c17.77-13.42,38.76-17.96,60.44-21.22,6.1-.92,15.26-2.23,21.16-2.7,5.94-.47,8.74,3.23,13.67,3.05,9.1-.33,20.25-5.26,29.27-5.76,3.34-.19,5.45,1.5,8.79,1.31,29.44-1.62,55.14-29.85,81.07-40.66l-3.91-7.98c-1.99,0-15.02,6.45-16.75,8.04-2.44,2.24-2.38,6.72-6.2,7.85-6.71,1.99-10.93-8.13-4.22-11.25,2.42-1.13,6.41-.18,10.25-1.49,10.43-3.55,13.81-9.46,25.48-11.88,31.38-6.51,60.88-11.57,90.79-1.07,12.45,4.37,33.25,10,39.59,23.02,2.68,5.5,1.62,12.33,3.12,15.4,1.38,2.82,11.81,11.12,14.99,15.25,14.59,18.91,18.29,36.9,23.4,58.8,1.51,6.47,2.09,16.81,4.35,22.32,1.59,3.86,9.65,4.72,12.42,12.12,5.18,13.8-3.92,17.09-3.88,23.86.03,5.46,5.14,30.67,7.03,36.27,2.94,8.71,13.94,7.59,12.84,24.19-.29,4.38-4.25,8.2-4.23,11.66.04,8.42,8.42,45.68,11.96,53.74.46,1.05,6.41,1.98,8.7,5.47,3.16,4.84,4.81,14.99,2.56,20.43-1.19,2.88-4.34,4.78-4.6,6.58-.35,2.46,1.8,13.13,4.42,12.61,3.41-6.25,5.66-14.58,14.24-8.57,2.01,2.65,2.91,9.07,2.1,12.31-.65,2.59-3.72,3.59-3.8,4.98-.22,3.82,3.17,8.06,3.95,11.92.84,4.17-.34,16.08-2.49,19.59-2.9,4.74-8.55,2.93-4.26,12.85,7.82.87,6.07-9.35,11.57-10.88,7.95-2.22,13.46,14.16,5.89,18.41-9.58,5.37-7.79-8.87-16.91-4.74l.85,4.77c7.03-1.33,10.64,8.06,13.44,9.04,3.64,1.28,8.28-2.59,10.83,3.7,1.09,2.68,1.96,8.65.72,11.29-1.59,3.39-5.54,2.7-6.9,5.04-1.52,2.62-.16,11.53-3.51,15.16l5.31-1.27c5.87-25.93,22.75,4.04,11.21,8.23-7.27,2.65-10.24-9.34-20.16-3.34l3.29,16.72c7.51-1.91,15.57-2.51,23.05-4.49,3.71-.98,6.57-5.73,10.41-2.6l43.05,230.76,18.3.66-13.57-61.68c-12.89-79.32,11.19-103.73,41.06-169.49,1.83-4.02,8.11-17.15,6.73-20.37-1.33-3.1-8.88-6.83-7.9-12.44,3.67-2.59,8.25-2.14,12.55-1.8,53.54,4.14,115.14,45.77,153.32,81.42,8.97,8.37,37.1,35.06,39.66,45.42.72,2.93-.56,2.67-3.05,2.73-8.73.21-10.33-6.2-22.16-2.65-50.91,15.29-74.04,72.95-79.49,120.77-4.89,42.93.76,155.06,13.3,195.19.96,3.06,3.75,4.51,4.18,6.33.53,2.27-1.82,5.35-1.17,8.88.58,3.19,3.23,5.57,4.37,8.29,123.01-98.98,201.73-250.77,201.73-420.94h0C1080,241.77,838.23,0,540,0Z"/>
    <path class="st5" d="M595.41,802.17c-.74-4-2.99-19.58-5.51-20.75l-4.38.22,16.72,84.94,4.18-.81c-1.83-10.48-4.38-20.89-6.23-31.39-1.81-10.3-2.87-21.94-4.77-32.21Z"/>
    <polygon class="st5" points="502.83 295.3 507.83 298.7 510.35 296.7 496.51 226.38 490.03 229.29 502.83 295.3"/>
  </g>
  <g class="st4">
    <path class="st0" d="M504.36,277.39l-4.15.12-1.57,3.66h-2.77c-.05-2.64-5.05-8.06-.38-9.42,1.51-.44,6.04,3.32,8.87,1.85l-.1-7.5c-18.82-4.87-1.48-10.12-.15-15.97,1.29-5.68-1.56-12.6-6.47-15.79-17.28-11.23-28.62,5.42-42.07,13.69-7.35,4.52-13.18,5.61-20.94,8.45-4.29,1.57-10.15,4.25-14.35,5.55-3.38,1.04-8.53-.65-11.94.38-2.1.63-2.07,3.14-5.83,3.65-14.46,1.95-31.4-2.54-46.02-1.95,3.53-5.51,14.7-6.99,18.92-10.93,1.32-1.23,1.45-3.1,2.45-4.18,4.31-4.71,32.55-4.26,39.71-3.79,1.71.11,3.01,1.67,4.74,1.73,18.57.69,31.73-16.72,45.57-26.39.98-1.13.74-2.37-.96-1.91-3.03.84-7.35,5.51-9.91,6.23-1.72.48-1.78.35-2.9-1.04-.52-2.46,11.56-7.21,12.17-8.21.53-.86-.09-2.5.19-3.57,5.91.14,10.69-1.52,16.06-3.85l.54,2.88c-1.88,2.3-10.16,1.49-9.06,6.6,8.89-3.03,17.04-5.54,26.53-3.79.5-.46-.74-3.31-1.58-3.85-3.15-2.02-7.82,1.21-8.83-1.37-1.42-3.65,5.97-2.54,8.03-2.34,11.58,1.08,24.21,8.28,29.31,19.03,1.43,3.01,4.93,10.96-.36,9.38l-5.24-12.31c-5.75,9.31,3.46,15.92,3.33,25.59l3.32-6.63,2.31,1.51c0,4.54-3.24,8.99-3.77,13.15-.87,6.9,1.11,16.95,1.01,24.71-.02,2.01-.94,3.86-.98,5.66-.19,9.99.43,19.94-.95,29.84l4.72-1.89c-.17,2.89,2.36,4.44,2.81,7.16,3.04,18.46-1.2,46.46.99,66.3.53,4.85,3.78,8.94,3.86,14.22.05,3.14-1.64,5.88-1.59,7.58.1,3.34,5.87,8.86,7.37,12.15,2.68,5.89,2.56,13.01-.63,18.64-6.9-6.99,1.97-17.61-8.54-22.72-3.49,2.9.32,7.48.31,10.88-.02,6.44-4.8,8.36,4.42,13.81,1.37.81,2.84-.4,3.8.83.88,1.13,1.2,4.29,1.69,5.95.3,1.03,1.64,2.02,1.64,2.16v18.48c-3.5-1.23.53-9.59-.95-11.37-2.84-.82-2.3,4.61-4.76,2.39-3.04-2.74-.47-9.2-3.24-11.93-.81-.8-7.63-4.25-8.1-3.74,1.93,4.25-4.63,7.61-4.78,8.08-1.85,5.89,8.69-1.29,10.26,5.88,1.6,7.35-5.85,6.55-4.53,13.52,3.7-3.2,10.24-1.98,10.51,3.32.41,8.01-11.21,8.57-11.51.5l-4.15.82c-.93.67-.85,10.1-.36,11.76.88,2.97,6.27,4.75,6.49,11.6.24,7.71-6.08,9.51-6.72,14.13-1.34,9.61,6.75,9.77,6.76,19.96,0,7.85-4.75,8.99-5.73,13.3-.55,2.42-1.28,10.81-.92,13.18,1.12,7.27,6.87,8.83,2.85,19.09-5.19,13.24-3.71,30.59-3.9,45.39-.54,43.3.41,86.64.08,129.94-.09,12.36-3.89,44.82,2,54.78,1.22,2.07,2.74,4.2,5.09,2.57,1.9-1.32,10.3-7.04,10.94-8.04,1.58-2.44.47-4.91,1.1-7.43,1.35-5.38,5.1-8.41,8.32-12.52l-.14-27.39c-16.3-7.05-17.23-36.82-.77-43.83l-.21-20.59c-14.03-9.56-14.23-33.47,0-42.96-.8-39.65,7.19-77.82,25.62-112.87v-1.46c-16.61-21.24-12.34-38.04,17.39-30.74,25.01,6.15,59.3,30.13,73.55,51.56,11.15,16.77,13,32.03-12.6,29.67-3.7-.34-11.29-3.49-13.74-2.37-5.33,2.44-13.9,25.47-15.86,31.57-20.53,63.74-10.89,137.69-19.35,203.39-5.98,46.44-47.9,67.25-90.12,47.71-2.18-1.01-9.23-6.04-9.95-6.21-1.37-.32-4.31.89-6.44.88-9.51-.03-16.66-8.54-17.54-17.61-.33-3.41,1.35-9.91.5-11.83-1.69-3.78-6.01,2.46-7.12-1.46s6.69-2.41,3.37-7.16c-.98-1.41-5.16-.66-7.23-1.3-4.43-1.36-5.27-8.37-11.65-5.2-2.49-2.08.15-4.64.37-7.15.51-5.96.47-12.5.92-18.51h2.84s1.41,3.79,1.41,3.79c.43-4.22,9.74-6.12,9.96-7.14,1.44-6.67-13.33-3.35-14.21-4.23l1.11-12.63,2.68-1.58v10.43c3.7,1.25,3.61-1.66,4.94-2.2,2.17-.88,5.73-.14,6.92-2.53l.36-16.02c-2.14-.3-4.07-.98-5.89-2.16-2.67-1.72-2.64-4.51-5.37-4.58l-.09,9.37-3.7-.4,1.84-32.17c-.14-1.66-2.62-2.94-.67-5.03l1.58-.72c2.69,1.19,12.38,2.76,13.9.57l-.47-9.12c-4.45-3.1-19.67,5.8-11.89-8.94,3.22-.19,1.2,3.68,2.27,4.29l9.53,1.36c2.78-8.05,1.23-12.35-.92-19.88-11.8,2.38-1.93-4.69-6.16-9.45-1.97,0-2.12,14.77-2.37,17.05h-2.84c-1.32-3.79,2.59-15.5-.01-17.54-.77-.6-2.7-.46-3.35-1.38-1.47-2.09.32-8.93.62-11.81.63-6.07,1.48-12.77,2.45-19.19.77-5.12-4.05-14.83,4.13-17.05l2.8-53.41,3.8.49-2.38,54.47c1.7-2.54,2.11-7.81,2.36-10.89.28-3.45-.24-6.96.02-10.41,3.22-43.07,5.55-86.22,7.57-129.38-5.16-.49-1.82,10.41-2.84,11.37h-2.84c-.51-.48.47-8.86.02-10.71-.28-1.15-9.94-5.8.99-9.78l.89-17.43h2.84c2.09,1.98-3.93,17.86,1.89,18.01l5.7-95.73,2.85.57-1.9,31.66,6.19-1.85,3.82-67.4-5.38-.33-1.8,29.78h-3.78s1.73-29.7,1.73-29.7l-2.67-1.58-.96,31.28h-3.78s1.89-36.03,1.89-36.03c1.01.13,2.3-.26,3.18,0,1.11.34-.19,3.32,5.76-.07,4.34,8.76,8.36-2.86,7.09-6.9-.84-2.67-12.27-.59-15.08-.62l.86-13.66,2.92-.56c.38.37-1.07,10.41,1.89,7.58l.97-7.59h2.84s0,9.49,0,9.49h5.7s.95-23.71.95-23.71h-5.7c-.86.85,2.02,8.19-2.35,6.63-2.29-.82.32-5.85-.49-7.58h-2.83c-.38.37,1.2,8.33-2.36,7.58-2.77-1.68-.68-4.41-.92-6.19-.38-2.82-3.67-5.46,1.09-7.93l5.02,1.8v-4.74s3.79,0,3.79,0l-.53,5.71,6.22.92v-18.01Z"/>
    <polygon class="st0" points="487.3 378.8 483.5 448.95 479.72 448.94 483.51 378.82 487.3 378.8"/>
    <polygon class="st0" points="479.71 502.02 476.86 562.21 475.92 571.22 473.09 571.22 476.88 502.02 479.71 502.02"/>
  </g>
  <text class="st2" transform="translate(314 960.34)"><tspan x="0" y="0">EG</tspan></text>
  <g class="st4">
    <path d="M416.93,906.39c0,2.61.93,4.89,2.8,6.85,1.87,1.96,4.31,3.73,7.33,5.3,3.02,1.58,6.2,3.16,9.56,4.74,3.64,1.65,7.11,3.38,10.42,5.2,3.3,1.82,6.03,3.91,8.19,6.28,2.16,2.37,3.23,5.2,3.23,8.5,0,3.64-1.37,6.83-4.09,9.58-2.73,2.75-6.42,4.89-11.06,6.44-4.65,1.55-9.94,2.32-15.88,2.32-2.87,0-5.87-.21-8.98-.62-3.11-.41-5.94-.93-8.48-1.55-2.54-.62-4.38-1.27-5.53-1.96-.38-.21-.72-.43-1.01-.67-.29-.24-.43-.67-.43-1.29l-.43-16.38c-.1-.34.12-.53.65-.57.53-.03.84.09.93.36,1.44,2.13,3.02,4.38,4.74,6.75s3.66,4.55,5.82,6.54c2.16,1.99,4.57,3.62,7.26,4.89,2.68,1.27,5.75,1.91,9.2,1.91,2.2,0,4.31-.27,6.32-.82,2.01-.55,3.66-1.55,4.96-2.99s1.94-3.43,1.94-5.97c0-3.23-1.01-5.99-3.02-8.29-2.01-2.3-4.6-4.33-7.76-6.08s-6.47-3.42-9.91-5c-3.35-1.58-6.56-3.21-9.63-4.89-3.07-1.68-5.56-3.6-7.47-5.77-1.92-2.16-2.87-4.75-2.87-7.78,0-3.85,1.51-6.99,4.53-9.43,3.02-2.44,6.85-4.24,11.49-5.41,4.65-1.17,9.36-1.75,14.15-1.75,3.45,0,6.9.22,10.35.67,3.45.45,6.18.98,8.19,1.6.96.28,1.56.58,1.8.93.24.34.36.72.36,1.13v15.14c0,.21-.22.36-.65.46-.43.1-.74.05-.93-.15-.58-.82-1.39-2.18-2.44-4.07-1.06-1.89-2.44-3.86-4.17-5.92-1.72-2.06-3.93-3.83-6.61-5.3-2.68-1.48-5.94-2.21-9.77-2.21-2.4,0-4.58.34-6.54,1.03-1.96.69-3.54,1.7-4.74,3.04-1.2,1.34-1.8,3.07-1.8,5.2Z"/>
    <path d="M568.95,959.12c.48,0,.72.21.72.62s-.24.62-.72.62c-2.87,0-5.87-.07-8.98-.21-3.11-.14-6.11-.21-8.98-.21-3.26,0-6.08.07-8.48.21-2.4.14-5.08.21-8.05.21-.38,0-.57-.21-.57-.62s.19-.62.57-.62c3.93,0,6.2-.57,6.83-1.7.62-1.13-.26-3.38-2.66-6.75l-29.17-41.3,7.04-8.86-28.59,45.22c-2.59,4.12-2.64,7.38-.14,9.79,2.49,2.4,6.42,3.6,11.78,3.6.48,0,.72.21.72.62s-.24.62-.72.62c-2.87,0-5.51-.07-7.9-.21-2.4-.14-5.41-.21-9.05-.21s-6.73.07-8.98.21c-2.25.14-5.01.21-8.26.21-.38,0-.58-.21-.58-.62s.19-.62.58-.62c2.59,0,4.81-.39,6.68-1.18,1.87-.79,3.74-2.23,5.6-4.33,1.87-2.09,4-5.06,6.39-8.91l31.18-49.13c.09-.21.53-.33,1.29-.36.77-.03,1.2.09,1.29.36l35.92,50.68c2.3,3.23,4.29,5.79,5.96,7.67,1.68,1.89,3.26,3.23,4.74,4.02,1.48.79,2.99,1.18,4.53,1.18ZM490.5,936.77l2.16-2.88h41.38l1.01,2.88h-44.54Z"/>
    <path d="M569.53,960.36c-.29,0-.43-.21-.43-.62s.14-.62.43-.62c2.78,0,6.3-1.06,10.56-3.19,4.26-2.13,8.88-5.66,13.87-10.61l17.67-17.1,2.59,1.44-15.95,16.27c-4.02,4.05-5.89,7.26-5.6,9.63.29,2.37,2.78,3.55,7.47,3.55.19,0,.29.21.29.62s-.1.62-.29.62c-2.78,0-5.41-.03-7.9-.1-2.49-.07-5.8-.1-9.91-.1-2.68,0-4.86.04-6.54.1-1.68.07-3.76.1-6.25.1ZM626.86,960.36c-.29,0-.43-.21-.43-.62s.14-.62.43-.62c1.82,0,3.23-.26,4.24-.77,1.01-.52.74-1.6-.79-3.24l-44.69-49.65c-2.68-3.02-5.2-5.15-7.54-6.39-2.35-1.24-4.86-1.85-7.54-1.85-.29,0-.43-.21-.43-.62s.14-.62.43-.62c1.92,0,3.95.05,6.11.15,2.16.1,4.19.15,6.11.15,4.12,0,7.92-.05,11.42-.15,3.5-.1,6.58-.15,9.27-.15.19,0,.29.21.29.62s-.1.62-.29.62c-1.82,0-3.26.24-4.31.72-1.06.48-.82,1.61.72,3.4l45.55,50.47c2.39,2.54,4.84,4.4,7.33,5.56,2.49,1.17,5.36,1.75,8.62,1.75.29,0,.43.21.43.62s-.14.62-.43.62c-2.11,0-4.43-.03-6.97-.1-2.54-.07-5.24-.1-8.12-.1-4.12,0-7.71.04-10.78.1-3.07.07-5.94.1-8.62.1ZM616.95,928.22l-2.59-1.44,15.95-16.27c4.02-4.12,5.89-7.37,5.6-9.73-.29-2.37-2.78-3.55-7.47-3.55-.19,0-.29-.21-.29-.62s.09-.62.29-.62c2.78,0,5.41.05,7.9.15,2.49.1,5.8.15,9.91.15,2.78,0,5-.05,6.68-.15,1.68-.1,3.71-.15,6.11-.15.29,0,.43.21.43.62s-.14.62-.43.62c-2.78,0-6.3,1.08-10.56,3.24-4.26,2.16-8.93,5.72-14.01,10.66l-17.53,17.1Z"/>
    <path d="M711.06,961.6c-6.9,0-13.15-.88-18.75-2.63-5.6-1.75-10.39-4.17-14.37-7.26-3.98-3.09-7.04-6.64-9.2-10.66-2.16-4.02-3.23-8.29-3.23-12.82,0-5.56,1.51-10.44,4.53-14.63,3.02-4.19,7.02-7.67,12-10.46,4.98-2.78,10.44-4.86,16.38-6.23,5.94-1.37,11.83-2.06,17.67-2.06,7.09,0,13.43.91,19.04,2.73,5.6,1.82,10.37,4.27,14.3,7.37,3.93,3.09,6.92,6.59,8.98,10.51,2.06,3.91,3.09,7.93,3.09,12.05,0,4.81-1.34,9.27-4.02,13.39-2.68,4.12-6.35,7.73-10.99,10.82-4.65,3.09-10.01,5.51-16.09,7.26-6.08,1.75-12.53,2.63-19.33,2.63Z"/>
  </g>
</svg>