<?xml version="1.0" encoding="UTF-8"?>
<svg id="Layer_1" xmlns="http://www.w3.org/2000/svg" version="1.1" viewBox="0 0 1080 1080">
  <!-- Generator: Adobe Illustrator 29.5.0, SVG Export Plug-In . SVG Version: 2.1.0 Build 137)  -->
  <defs>
    <style>
      .st0, .st1 {
        fill: #fff;
      }

      .st1, .st2 {
        display: none;
      }

      .st3 {
        font-family: Raleway-Black, Raleway;
        font-size: 55.46px;
        font-weight: 800;
      }

      .st4 {
        stroke: #231f20;
        stroke-miterlimit: 10;
      }
    </style>
  </defs>
  <rect class="st4" x="318" y="207" width="444" height="666"/>
  <path class="st1" d="M530.42,758.19c0,.9-2.89,2.82,1.59,4.02-.96-6.54.75-12.89,4.88-4.02l-4.93,76.86c.51,2.03,15.03,5.7,14.6,9.81l-24.14,45.22c-2.46,1.49-12.65-7.45-15.02-7.1-1.94.29-11.64,8.7-15.08,10.68-31.03,17.83-73.31,12.71-96.03-15.89-38.14-48.04-12.33-175.14-18.82-238.3-2.49-24.26-23.15-66.78-53.19-56.75-7.03,2.35-13.54,9.12-20.6,11.55l118.99-111.66c-16.38,32.36,8.22,60.83,20.06,90.04s19.33,59.71,13.72,92.28c.58,3.13,3.58,5.95,6.42,7.3,2.05-19.98,1.89-40.22,3.25-60.24,2.33-34.24,6.06-68.5,8.08-102.8.6-10.21-2.74-8.19-3.26-9.95-1.77-6.01,3.14-4.82,4.12-8.4.76-2.77.34-9.48.68-9.83.46-.49,11.96-.29,13.46.22,4.84,1.64-.19,9.07,5.84,7.81.67-6.91-2.39-13.14-1.67-20.11.33-3.14,4.92-12,3.27-13.62-3.13-3.08-5.92,3.71-7.36,4.62-14.07,8.84-13.26-20.6-.03-12.5,1.43.87,4.3,7.78,7.39,4.66,3.52-3.55-4.81-13.13-5.69-15.99-4.58-14.83,8.73-12.32,9.01-13.83,1.8-9.59-6.7-15.3-6.65-22.44s8.06-8.24,8.31-9.82c.46-2.93-2.97-6.4-3.35-9.57-.49-4.09,1.76-7.54,1.31-10.76-.3-2.15-2.92-4.3-2.91-6.82.02-4.84,7.32-4.73,8.12-9.64.6-3.69-1.52-7.16-1.32-10.82.39-6.93,4.54-18.43,4.25-26.19-.12-3.21-3.21-5.73-3.15-9.58.05-3.47,4.12-9.23,4.78-14.62,2.22-18,1.4-31.89,7.85-50.01,7.05-19.83,39.99-19.55,56.72-15.75,6.31,1.43,24.92,8.52,29.53,12.26,3.69,2.99,1.6,6.46,3.58,8.05,6.49,5.21,41.26,15.3,49.71,14.46,2.94-.29,2.14-3.03,3.44-3.34,4.12-.96,9.84.91,13.89-.06,1.45-.35.37-3.35,3.26-3.2,3.18.16,31.72,5.65,32.87,6.87.69.74-.19,3.17,1.35,4.5,1.67,1.45,38.54,17.3,35.97,19.16-5.82,1.06-11.29-1.43-16.82-1.66-21.62-.88-38.56-.49-59.63-4.68-16.21-3.22-34.51-5.52-50.93-10.16-19.01-5.37-67.53-31.71-80.38-5.52-1.3,2.64-3.35,10.12-2.63,12.83,1.08,4.14,22.78,17.09,7.69,19.72,1.13,9.1-1.12,20.12-.02,28.9.47,3.79,4.73,3.2,4.93,4.75.24,1.87-4.63,4.57-4.76,5.16-2.79,12.84,3.38,30.88-4.82,44.29-1.13,1.85-4.18,1.34-4.89,5.16-.66,3.55-.77,33.84-.05,36.75.5,2.04,4.4,1.45,6.11,3.06,6.72,6.32,2.26,31.14,3.49,40.68.39,3.02,3.01,2.13,3.33,3.34,1.57,5.85-2.68,5.07-3.13,6.54-.28.92-1.63,10.29-1.52,10.82.55,2.53,6,1.43,4.64,4.88-2.03,5.13-12.24-3.13-14.45,4.03,18.89-3.93,8.51,28.22,11.22,39.06.44,1.76,3.36,1.78,4.01,2.72,4.43,6.48-3.52,3.87-4.06,5.75-.14.47-1.2,9.18-1.12,9.66.34,2.12,7.25,1.71,3.65,5.51-3.21,3.38-12.85.68-13.7,1.57-.8.84-2.01,20.77-1.34,23.14.98,3.46,6.56.65,8.61,4.15,2.83,4.81,1.75,27.76-8.86,22.53-2.51,9.98,4.9,4.49,7.34,7.93,1.64,2.31.1,21.53-.99,22.54s-10.31-2.13-5.58,4.92c.92,1.36,4.52,1.68,5.4,4.25.96,2.8.58,19.88-1.59,21.22-2.03,1.26-8.64-1.9-6.18,4.22,1.09,2.72,9.1,1.81,12.82,3.23,6.17,2.36,14.95,9.33,9.77,16.15-5.84,7.69-7.27-7.28-12.93-8.92,1.24,8.01-8.27,6.56-9.47,8.24-.85,1.19-.67,27.18.03,29.3,1.53,4.65,9.55,1.38,9.45,3.46-1.24,1.64-1.38,8.4-1.72,8.72-.77.74-7.96-.3-7.96.1,0,8.28-.06,16.61,0,24.91ZM470.92,802.38c-.41-.4-4.85.27-6.41,0,.23,20.74-6.46,6.45-7.48,6.31-.76-.1-8.14,1.59-8.42,1.92-2.01,2.33.6,22.31,4.6,24.76,14.77,9.04,20.26-30.54,17.71-32.98Z"/>
  <path class="st0" d="M471.47,224.81c7.63,2.68,20.38,6.13,24.26,14.11,1.64,3.37.99,7.56,1.91,9.44.84,1.73,7.24,6.81,9.19,9.35,8.94,11.59,11.21,22.62,14.34,36.04.93,3.96,1.28,10.3,2.67,13.68.97,2.37,5.91,2.89,7.61,7.43,3.17,8.46-2.4,10.48-2.38,14.63.02,3.35,3.15,18.8,4.31,22.23,1.8,5.34,8.55,4.65,7.87,14.83-.18,2.69-2.6,5.02-2.59,7.15.03,5.16,5.16,28,7.33,32.93.28.64,3.93,1.21,5.33,3.35,1.94,2.96,2.95,9.19,1.57,12.52-.73,1.76-2.66,2.93-2.82,4.03-.22,1.51,1.11,8.05,2.71,7.73,2.09-3.83,3.47-8.93,8.73-5.25,1.23,1.62,1.78,5.56,1.28,7.55-.4,1.58-2.28,2.2-2.33,3.05-.13,2.34,1.95,4.94,2.42,7.31.51,2.56-.21,9.85-1.52,12-1.78,2.9-5.24,1.8-2.61,7.88,4.79.54,3.72-5.73,7.09-6.67,4.87-1.36,8.25,8.68,3.61,11.28-5.87,3.29-4.78-5.44-10.37-2.91l.52,2.92c4.31-.82,6.52,4.94,8.24,5.54,2.23.78,5.07-1.59,6.63,2.27.67,1.65,1.2,5.3.44,6.92-.97,2.08-3.39,1.65-4.23,3.09-.93,1.6-.1,7.07-2.15,9.29l3.26-.78c3.6-15.89,13.94,2.47,6.87,5.05-4.46,1.62-6.28-5.73-12.36-2.05l2.02,10.25c4.61-1.17,9.54-1.54,14.13-2.75,2.27-.6,4.03-3.51,6.38-1.59l26.39,141.43,11.22.4-8.31-37.8c-7.9-48.61,6.86-63.57,25.17-103.88,1.12-2.47,4.97-10.51,4.12-12.48-.81-1.9-5.44-4.19-4.84-7.62,2.25-1.59,5.06-1.31,7.69-1.11,32.81,2.54,70.57,28.05,93.97,49.9,5.49,5.13,22.74,21.49,24.31,27.83.44,1.8-.34,1.64-1.87,1.67-5.35.13-6.33-3.8-13.58-1.63-31.2,9.37-45.37,44.71-48.72,74.02-3,26.31.47,95.03,8.15,119.63.59,1.88,2.3,2.76,2.56,3.88.33,1.39-1.11,3.28-.72,5.45.4,2.2,2.41,3.77,2.89,5.72,1.19,4.8,2.24,11.58,3.43,16.96,7.88,35.82,14.02,86.2-22.81,108.48-3.56,2.15-10.94,4.36-13.43,6.37-1.28,1.04-.04,3.04-1.79,4.22-2.58,1.73-5.99,1.18-8.45,2.43-2,1.02-2.95,4.59-7.06,5.69-6,1.61-8.06-1.83-11.23-2.1-2.35-.2-4.29,1.38-6.91.36-3.62-1.42-3.4-7.09-4.76-7.78-1.02-.51-6.54-1.11-8.76-1.88-7.45-2.57-15.46-5.93-22.23-9.94-2.58-1.53-13.13-9.94-13.96-10.17-1.75-.48-4.48.94-6.04,1.91-1.88,1.16-3.6,4.41-5.23,3.95-3.25-.92-1.51-7.69-3.52-11.38-1.04-1.91-3.46-2.4-4.27-3.56-1.94-2.76-3.67-6.16-6.12-9.64-3.22-4.59-1.44-7.58-2.15-12.18-.56-3.65-3.55-8.18-1.19-11.52.72-1.02,2.78-1.35,3.26-2.63,1.05-2.81-4.8-19.6-5.75-24.01-1.14-5.27-1.16-13.16-2.12-18.31l-14.94-80.34h-2.67s4.38,17.76,4.38,17.76l-4.17.7c-2.43-2.24-.15-3.96-.45-6.39-2.19-17.75-9.9-60.52-16.44-75.96-1.16-2.74-4.02-5.22-4.44-7.62-.62-3.53,1.55-6.13,1.62-8.59.18-6.19-5.25-12.75,5.47-13.74l-13.48-82.02c-.8-1.98-5.37-2.79-7.47-5.44-5.46-6.9-6.53-20.32,2.45-24.73l-3.97-24.66c-13.83-.42-19.32-25.83-4.9-29.37l-3.28-21.01c-2.28.52-3.5,3.53-5.98,1.48-2.49-24.06-8.92-47.77-13.67-71.49-2.42-12.1-3.37-27.11-7.01-38.72-.72-2.31-2.6-3.9-2.76-4.71-.45-2.32,1.16-7.17-.61-12.34-.95-2.77-3.07-2.82-3.63-4.57-1.97-6.15,7.31-6.53,7.75-1.54.16,1.76-1.75,2.79-1.75,4.83,0,2.49,1.38,5.51,1.58,8.09l4.02-2.27c-1.24-3.1-.49-6.34-.96-9.38-.68-4.49-2.13-11.97-3.3-16.14-.77-2.77-4.15-13.76-6.84-14.11-1.62-.21-3.6,1.16-5.22.05-2.69-2.54-.04-7.48-.34-8.29-.5-1.37-22.41-13.11-25.45-14.02-19.15-5.72-35.34,8.39-52.31,15.05-7.12,2.79-18.33,4.41-23.8,6.89-.66.3.07,1.59-1.47,2.11-5.49,1.84-14.85,1.57-19.44,3.24-2.76,1-4.35,4.45-8.12,5.68-6.15,2.01-12.91,1.77-19,2.75-2.22.36-4.05,1.84-5.8,2.11-9.71,1.48-17.38-.05-26.7-2.38l-1.52-12.09c10.89-8.23,23.76-11.01,37.04-13.01,3.74-.56,9.35-1.37,12.97-1.65,3.64-.29,5.36,1.98,8.38,1.87,5.58-.2,12.41-3.22,17.94-3.53,2.05-.11,3.34.92,5.39.8,18.04-1,33.8-18.3,49.68-24.92l-2.4-4.89c-1.22,0-9.2,3.95-10.27,4.92-1.5,1.37-1.46,4.12-3.8,4.81-4.11,1.22-6.7-4.98-2.59-6.89,1.48-.69,3.93-.11,6.28-.91,6.39-2.18,8.46-5.8,15.61-7.28,19.23-3.99,37.31-7.09,55.64-.65ZM436.01,224.11c-6.07.57-12.65,2.95-18.79,3.7-2.73,8.27,7.63,4.1,12.19,3.92,11.18-.45,23.71-.46,34.39,2.85.85-.22,1.74-5.61.06-6.62-3.66-2.2-23.23-4.27-27.85-3.84ZM492.87,244.84c2.23-4.56-19-15.82-21.2-13.49l-.79,5.39,21.99,8.09ZM483.07,321.23l-3.97,1.78,7.84,40.46,3.07,2.09,1.54-1.23-8.48-43.1ZM487.7,367.3l12.85,65.28c.13.67,1.7,2.65,2.98,1.63l-11.79-64.65-1.35-2.4-2.69.14ZM612.23,661.91l2.13-1.9-28.02-147.69-1.8-1.74-8.87,1.63c4.86,7.06,10.85,24.83-.73,27.66l2.15,11.06c5.37-3.74,10.17,5.36,11.58,9.78,2.4,7.54,3.53,19.55-5.16,23.18l3,14.24c10.08,3.54,14.89,16.58,11.08,26.19-1.74,4.38-5.83,6.05-2.82,12.04.33.65,2.85,1.1,4,2,2.6,2.05,10.47,8.34,11.03,11.18l2.44,12.37ZM537.62,661.53l10.25,52.06,2.56-.5c-1.12-6.42-2.69-12.8-3.82-19.24s-1.76-13.45-2.93-19.74c-.45-2.45-1.84-12-3.38-12.72l-2.69.14ZM626.94,651.04l-11.6-.38c2.97,8.18,2.28,17.28,4.04,25.34,1.53,6.98,5.02,13.31,5.94,20.48l10.52-.21-8.9-45.23ZM614.59,665c-1.5-.96-1.52.38-1.45,1.59.19,3.04,1.25,6.12,2.63,8.81,2.79-1.16-.21-9.77-1.18-10.4ZM610.52,711.89c2.67-.87,6.89-.21,8.2-3.03s1.12-16.28-1.52-17.41l-3.54.31c.9,4.57-.04,8.35-2.01,12.4-.46.96-2.17,1.45-2.21,2.35-.07,1.58.97,3.67,1.07,5.38ZM639.35,718.62l-2.84-18.38-10.21-1.15c-1.19.63-1.17,5.61-.87,6.81.37,1.5,1.81,2.24,2.12,3.23.47,1.53-1.77,6.56.28,9.01l11.53.48ZM624.35,714.49c-5.07,5.06-2.03,12.05.35,17.69l2.93-1.05-3.28-16.64ZM628.25,720.81l3.95,20.05c.06.3,2.48.73,1.93,2.72-.44,1.57-2.7,3.19-4.19,1.74l-1.56-10.36-3.4.67c2.31,8.2-1.68,14.29-5.36,21.11,3.66,10,4.05,21.12,6.78,31.38.53,2,2.15,3.05,2.45,4.08.32,1.09-1.24,4.11.26,8.47,1.81,5.26.77,3.09,1.32,7.88.32,2.8,1.1,6.36,2.18,8.96,3.4,8.17,17.7,14.55,20.51,2.55-3.1-.79-6.52-.86-9.72-.95-2.29-.07-5.88,1.89-6.68-1.12-1.06-15.98-4.42-31.64-7.47-47.34-.78-2.25-5.86-6.56-.29-7.4,2.51-.38,17.9,1.64,18.45.77l-7.38-42.33-11.76-.89ZM647.84,766.67l-15.95-.11c-1.36,1.48,1.4,10.37,1.76,13.06.27,2.04-.08,4.06.24,6.09,1,6.34,3.49,22.95,5.73,27.97,1.65,3.69,9.87,3.89,13.35,3.34,1.97-.31.9-.33,1.03-1.53,1.51-14.26-2.6-28-5.52-41.48-.47-2.16.63-5.07-.64-7.33ZM588.8,885.47l7.26-3.66-5.16-5.55-2.04.89c-1.25,2.88-.94,5.34-.06,8.32Z"/>
  <g class="st2">
    <path class="st0" d="M504.36,277.39l-4.15.12-1.57,3.66h-2.77c-.05-2.64-5.05-8.06-.38-9.42,1.51-.44,6.04,3.32,8.87,1.85l-.1-7.5c-18.82-4.87-1.48-10.12-.15-15.97,1.29-5.68-1.56-12.6-6.47-15.79-17.28-11.23-28.62,5.42-42.07,13.69-7.35,4.52-13.18,5.61-20.94,8.45-4.29,1.57-10.15,4.25-14.35,5.55-3.38,1.04-8.53-.65-11.94.38-2.1.63-2.07,3.14-5.83,3.65-14.46,1.95-31.4-2.54-46.02-1.95,3.53-5.51,14.7-6.99,18.92-10.93,1.32-1.23,1.45-3.1,2.45-4.18,4.31-4.71,32.55-4.26,39.71-3.79,1.71.11,3.01,1.67,4.74,1.73,18.57.69,31.73-16.72,45.57-26.39.98-1.13.74-2.37-.96-1.91-3.03.84-7.35,5.51-9.91,6.23-1.72.48-1.78.35-2.9-1.04-.52-2.46,11.56-7.21,12.17-8.21.53-.86-.09-2.5.19-3.57,5.91.14,10.69-1.52,16.06-3.85l.54,2.88c-1.88,2.3-10.16,1.49-9.06,6.6,8.89-3.03,17.04-5.54,26.53-3.79.5-.46-.74-3.31-1.58-3.85-3.15-2.02-7.82,1.21-8.83-1.37-1.42-3.65,5.97-2.54,8.03-2.34,11.58,1.08,24.21,8.28,29.31,19.03,1.43,3.01,4.93,10.96-.36,9.38l-5.24-12.31c-5.75,9.31,3.46,15.92,3.33,25.59l3.32-6.63,2.31,1.51c0,4.54-3.24,8.99-3.77,13.15-.87,6.9,1.11,16.95,1.01,24.71-.02,2.01-.94,3.86-.98,5.66-.19,9.99.43,19.94-.95,29.84l4.72-1.89c-.17,2.89,2.36,4.44,2.81,7.16,3.04,18.46-1.2,46.46.99,66.3.53,4.85,3.78,8.94,3.86,14.22.05,3.14-1.64,5.88-1.59,7.58.1,3.34,5.87,8.86,7.37,12.15,2.68,5.89,2.56,13.01-.63,18.64-6.9-6.99,1.97-17.61-8.54-22.72-3.49,2.9.32,7.48.31,10.88-.02,6.44-4.8,8.36,4.42,13.81,1.37.81,2.84-.4,3.8.83.88,1.13,1.2,4.29,1.69,5.95.3,1.03,1.64,2.02,1.64,2.16v18.48c-3.5-1.23.53-9.59-.95-11.37-2.84-.82-2.3,4.61-4.76,2.39-3.04-2.74-.47-9.2-3.24-11.93-.81-.8-7.63-4.25-8.1-3.74,1.93,4.25-4.63,7.61-4.78,8.08-1.85,5.89,8.69-1.29,10.26,5.88,1.6,7.35-5.85,6.55-4.53,13.52,3.7-3.2,10.24-1.98,10.51,3.32.41,8.01-11.21,8.57-11.51.5l-4.15.82c-.93.67-.85,10.1-.36,11.76.88,2.97,6.27,4.75,6.49,11.6.24,7.71-6.08,9.51-6.72,14.13-1.34,9.61,6.75,9.77,6.76,19.96,0,7.85-4.75,8.99-5.73,13.3-.55,2.42-1.28,10.81-.92,13.18,1.12,7.27,6.87,8.83,2.85,19.09-5.19,13.24-3.71,30.59-3.9,45.39-.54,43.3.41,86.64.08,129.94-.09,12.36-3.89,44.82,2,54.78,1.22,2.07,2.74,4.2,5.09,2.57,1.9-1.32,10.3-7.04,10.94-8.04,1.58-2.44.47-4.91,1.1-7.43,1.35-5.38,5.1-8.41,8.32-12.52l-.14-27.39c-16.3-7.05-17.23-36.82-.77-43.83l-.21-20.59c-14.03-9.56-14.23-33.47,0-42.96-.8-39.65,7.19-77.82,25.62-112.87v-1.46c-16.61-21.24-12.34-38.04,17.39-30.74,25.01,6.15,59.3,30.13,73.55,51.56,11.15,16.77,13,32.03-12.6,29.67-3.7-.34-11.29-3.49-13.74-2.37-5.33,2.44-13.9,25.47-15.86,31.57-20.53,63.74-10.89,137.69-19.35,203.39-5.98,46.44-47.9,67.25-90.12,47.71-2.18-1.01-9.23-6.04-9.95-6.21-1.37-.32-4.31.89-6.44.88-9.51-.03-16.66-8.54-17.54-17.61-.33-3.41,1.35-9.91.5-11.83-1.69-3.78-6.01,2.46-7.12-1.46s6.69-2.41,3.37-7.16c-.98-1.41-5.16-.66-7.23-1.3-4.43-1.36-5.27-8.37-11.65-5.2-2.49-2.08.15-4.64.37-7.15.51-5.96.47-12.5.92-18.51h2.84s1.41,3.79,1.41,3.79c.43-4.22,9.74-6.12,9.96-7.14,1.44-6.67-13.33-3.35-14.21-4.23l1.11-12.63,2.68-1.58v10.43c3.7,1.25,3.61-1.66,4.94-2.2,2.17-.88,5.73-.14,6.92-2.53l.36-16.02c-2.14-.3-4.07-.98-5.89-2.16-2.67-1.72-2.64-4.51-5.37-4.58l-.09,9.37-3.7-.4,1.84-32.17c-.14-1.66-2.62-2.94-.67-5.03l1.58-.72c2.69,1.19,12.38,2.76,13.9.57l-.47-9.12c-4.45-3.1-19.67,5.8-11.89-8.94,3.22-.19,1.2,3.68,2.27,4.29l9.53,1.36c2.78-8.05,1.23-12.35-.92-19.88-11.8,2.38-1.93-4.69-6.16-9.45-1.97,0-2.12,14.77-2.37,17.05h-2.84c-1.32-3.79,2.59-15.5-.01-17.54-.77-.6-2.7-.46-3.35-1.38-1.47-2.09.32-8.93.62-11.81.63-6.07,1.48-12.77,2.45-19.19.77-5.12-4.05-14.83,4.13-17.05l2.8-53.41,3.8.49-2.38,54.47c1.7-2.54,2.11-7.81,2.36-10.89.28-3.45-.24-6.96.02-10.41,3.22-43.07,5.55-86.22,7.57-129.38-5.16-.49-1.82,10.41-2.84,11.37h-2.84c-.51-.48.47-8.86.02-10.71-.28-1.15-9.94-5.8.99-9.78l.89-17.43h2.84c2.09,1.98-3.93,17.86,1.89,18.01l5.7-95.73,2.85.57-1.9,31.66,6.19-1.85,3.82-67.4-5.38-.33-1.8,29.78h-3.78s1.73-29.7,1.73-29.7l-2.67-1.58-.96,31.28h-3.78s1.89-36.03,1.89-36.03c1.01.13,2.3-.26,3.18,0,1.11.34-.19,3.32,5.76-.07,4.34,8.76,8.36-2.86,7.09-6.9-.84-2.67-12.27-.59-15.08-.62l.86-13.66,2.92-.56c.38.37-1.07,10.41,1.89,7.58l.97-7.59h2.84s0,9.49,0,9.49h5.7s.95-23.71.95-23.71h-5.7c-.86.85,2.02,8.19-2.35,6.63-2.29-.82.32-5.85-.49-7.58h-2.83c-.38.37,1.2,8.33-2.36,7.58-2.77-1.68-.68-4.41-.92-6.19-.38-2.82-3.67-5.46,1.09-7.93l5.02,1.8v-4.74s3.79,0,3.79,0l-.53,5.71,6.22.92v-18.01Z"/>
    <polygon class="st0" points="487.3 378.8 483.5 448.95 479.72 448.94 483.51 378.82 487.3 378.8"/>
    <polygon class="st0" points="479.71 502.02 476.86 562.21 475.92 571.22 473.09 571.22 476.88 502.02 479.71 502.02"/>
  </g>
  <text class="st3" transform="translate(314 960.34)"><tspan x="0" y="0">EG</tspan></text>
  <g>
    <path d="M416.93,906.39c0,2.61.93,4.89,2.8,6.85,1.87,1.96,4.31,3.73,7.33,5.3,3.02,1.58,6.2,3.16,9.56,4.74,3.64,1.65,7.11,3.38,10.42,5.2,3.3,1.82,6.03,3.91,8.19,6.28,2.16,2.37,3.23,5.2,3.23,8.5,0,3.64-1.37,6.83-4.09,9.58-2.73,2.75-6.42,4.89-11.06,6.44-4.65,1.55-9.94,2.32-15.88,2.32-2.87,0-5.87-.21-8.98-.62-3.11-.41-5.94-.93-8.48-1.55-2.54-.62-4.38-1.27-5.53-1.96-.38-.21-.72-.43-1.01-.67-.29-.24-.43-.67-.43-1.29l-.43-16.38c-.1-.34.12-.53.65-.57.53-.03.84.09.93.36,1.44,2.13,3.02,4.38,4.74,6.75s3.66,4.55,5.82,6.54c2.16,1.99,4.57,3.62,7.26,4.89,2.68,1.27,5.75,1.91,9.2,1.91,2.2,0,4.31-.27,6.32-.82,2.01-.55,3.66-1.55,4.96-2.99s1.94-3.43,1.94-5.97c0-3.23-1.01-5.99-3.02-8.29-2.01-2.3-4.6-4.33-7.76-6.08s-6.47-3.42-9.91-5c-3.35-1.58-6.56-3.21-9.63-4.89-3.07-1.68-5.56-3.6-7.47-5.77-1.92-2.16-2.87-4.75-2.87-7.78,0-3.85,1.51-6.99,4.53-9.43,3.02-2.44,6.85-4.24,11.49-5.41,4.65-1.17,9.36-1.75,14.15-1.75,3.45,0,6.9.22,10.35.67,3.45.45,6.18.98,8.19,1.6.96.28,1.56.58,1.8.93.24.34.36.72.36,1.13v15.14c0,.21-.22.36-.65.46-.43.1-.74.05-.93-.15-.58-.82-1.39-2.18-2.44-4.07-1.06-1.89-2.44-3.86-4.17-5.92-1.72-2.06-3.93-3.83-6.61-5.3-2.68-1.48-5.94-2.21-9.77-2.21-2.4,0-4.58.34-6.54,1.03-1.96.69-3.54,1.7-4.74,3.04-1.2,1.34-1.8,3.07-1.8,5.2Z"/>
    <path d="M568.95,959.12c.48,0,.72.21.72.62s-.24.62-.72.62c-2.87,0-5.87-.07-8.98-.21-3.11-.14-6.11-.21-8.98-.21-3.26,0-6.08.07-8.48.21-2.4.14-5.08.21-8.05.21-.38,0-.57-.21-.57-.62s.19-.62.57-.62c3.93,0,6.2-.57,6.83-1.7.62-1.13-.26-3.38-2.66-6.75l-29.17-41.3,7.04-8.86-28.59,45.22c-2.59,4.12-2.64,7.38-.14,9.79,2.49,2.4,6.42,3.6,11.78,3.6.48,0,.72.21.72.62s-.24.62-.72.62c-2.87,0-5.51-.07-7.9-.21-2.4-.14-5.41-.21-9.05-.21s-6.73.07-8.98.21c-2.25.14-5.01.21-8.26.21-.38,0-.58-.21-.58-.62s.19-.62.58-.62c2.59,0,4.81-.39,6.68-1.18,1.87-.79,3.74-2.23,5.6-4.33,1.87-2.09,4-5.06,6.39-8.91l31.18-49.13c.09-.21.53-.33,1.29-.36.77-.03,1.2.09,1.29.36l35.92,50.68c2.3,3.23,4.29,5.79,5.96,7.67,1.68,1.89,3.26,3.23,4.74,4.02,1.48.79,2.99,1.18,4.53,1.18ZM490.5,936.77l2.16-2.88h41.38l1.01,2.88h-44.54Z"/>
    <path d="M569.53,960.36c-.29,0-.43-.21-.43-.62s.14-.62.43-.62c2.78,0,6.3-1.06,10.56-3.19,4.26-2.13,8.88-5.66,13.87-10.61l17.67-17.1,2.59,1.44-15.95,16.27c-4.02,4.05-5.89,7.26-5.6,9.63.29,2.37,2.78,3.55,7.47,3.55.19,0,.29.21.29.62s-.1.62-.29.62c-2.78,0-5.41-.03-7.9-.1-2.49-.07-5.8-.1-9.91-.1-2.68,0-4.86.04-6.54.1-1.68.07-3.76.1-6.25.1ZM626.86,960.36c-.29,0-.43-.21-.43-.62s.14-.62.43-.62c1.82,0,3.23-.26,4.24-.77,1.01-.52.74-1.6-.79-3.24l-44.69-49.65c-2.68-3.02-5.2-5.15-7.54-6.39-2.35-1.24-4.86-1.85-7.54-1.85-.29,0-.43-.21-.43-.62s.14-.62.43-.62c1.92,0,3.95.05,6.11.15,2.16.1,4.19.15,6.11.15,4.12,0,7.92-.05,11.42-.15,3.5-.1,6.58-.15,9.27-.15.19,0,.29.21.29.62s-.1.62-.29.62c-1.82,0-3.26.24-4.31.72-1.06.48-.82,1.61.72,3.4l45.55,50.47c2.39,2.54,4.84,4.4,7.33,5.56,2.49,1.17,5.36,1.75,8.62,1.75.29,0,.43.21.43.62s-.14.62-.43.62c-2.11,0-4.43-.03-6.97-.1-2.54-.07-5.24-.1-8.12-.1-4.12,0-7.71.04-10.78.1-3.07.07-5.94.1-8.62.1ZM616.95,928.22l-2.59-1.44,15.95-16.27c4.02-4.12,5.89-7.37,5.6-9.73-.29-2.37-2.78-3.55-7.47-3.55-.19,0-.29-.21-.29-.62s.09-.62.29-.62c2.78,0,5.41.05,7.9.15,2.49.1,5.8.15,9.91.15,2.78,0,5-.05,6.68-.15,1.68-.1,3.71-.15,6.11-.15.29,0,.43.21.43.62s-.14.62-.43.62c-2.78,0-6.3,1.08-10.56,3.24-4.26,2.16-8.93,5.72-14.01,10.66l-17.53,17.1Z"/>
    <path d="M711.06,961.6c-6.9,0-13.15-.88-18.75-2.63-5.6-1.75-10.39-4.17-14.37-7.26-3.98-3.09-7.04-6.64-9.2-10.66-2.16-4.02-3.23-8.29-3.23-12.82,0-5.56,1.51-10.44,4.53-14.63,3.02-4.19,7.02-7.67,12-10.46,4.98-2.78,10.44-4.86,16.38-6.23,5.94-1.37,11.83-2.06,17.67-2.06,7.09,0,13.43.91,19.04,2.73,5.6,1.82,10.37,4.27,14.3,7.37,3.93,3.09,6.92,6.59,8.98,10.51,2.06,3.91,3.09,7.93,3.09,12.05,0,4.81-1.34,9.27-4.02,13.39-2.68,4.12-6.35,7.73-10.99,10.82-4.65,3.09-10.01,5.51-16.09,7.26-6.08,1.75-12.53,2.63-19.33,2.63Z"/>
  </g>
</svg>